<svg width="24" height="24" viewBox="0 0 24 24" fill="none" xmlns="http://www.w3.org/2000/svg">
<path d="M12.5932 23.2579L12.5822 23.2599L12.5112 23.2949L12.4912 23.2989L12.4772 23.2949L12.4062 23.2599C12.3955 23.2566 12.3875 23.2583 12.3822 23.2649L12.3782 23.2749L12.3612 23.7029L12.3662 23.7229L12.3762 23.7359L12.4802 23.8099L12.4952 23.8139L12.5072 23.8099L12.6112 23.7359L12.6232 23.7199L12.6272 23.7029L12.6102 23.2759C12.6075 23.2653 12.6018 23.2593 12.5932 23.2579ZM12.8582 23.1449L12.8452 23.1469L12.6602 23.2399L12.6502 23.2499L12.6472 23.2609L12.6652 23.6909L12.6702 23.7029L12.6782 23.7099L12.8792 23.8029C12.8918 23.8063 12.9015 23.8036 12.9082 23.7949L12.9122 23.7809L12.8782 23.1669C12.8748 23.1549 12.8682 23.1476 12.8582 23.1449ZM12.1432 23.1469C12.1388 23.1443 12.1335 23.1434 12.1285 23.1445C12.1234 23.1456 12.119 23.1487 12.1162 23.1529L12.1102 23.1669L12.0762 23.7809C12.0768 23.7929 12.0825 23.8009 12.0932 23.8049L12.1082 23.8029L12.3092 23.7099L12.3192 23.7019L12.3232 23.6909L12.3402 23.2609L12.3372 23.2489L12.3272 23.2389L12.1432 23.1469Z" fill="#FB7039"/>
<path d="M11.5136 2.14172L10.2536 1.38672L10.0136 2.83572C9.6316 5.12372 8.0686 7.24972 6.3446 8.74372C2.9696 11.6697 2.2306 14.8497 3.2756 17.4747C4.2756 19.9867 6.8136 21.7067 9.3896 21.9937L9.9856 22.0597C8.5116 21.1587 7.5656 19.0537 7.8956 17.4807C8.2216 15.9347 9.3336 14.4867 11.4696 13.1507L12.5466 12.4787L12.9486 13.6837C13.1856 14.3957 13.5956 14.9677 14.0126 15.5487C14.2126 15.8287 14.4156 16.1117 14.6016 16.4127C15.2446 17.4577 15.4146 18.6197 14.9996 19.7727C14.6216 20.8207 13.9986 21.6447 13.1396 22.1017L14.1096 21.9937C16.5276 21.7247 18.3026 20.8977 19.4556 19.5147C20.5986 18.1437 20.9996 16.3787 20.9996 14.4997C20.9996 12.7497 20.2806 10.9457 19.4326 9.44472C18.4386 7.68672 17.1416 6.22672 15.7256 4.81172C15.4806 5.30172 15.4996 5.49972 14.9956 6.28672C14.3411 4.54868 13.1126 3.0863 11.5136 2.14172Z" fill="#FB7039"/>
</svg>
