<svg width="20" height="20" viewBox="0 0 20 20" fill="none" xmlns="http://www.w3.org/2000/svg">
<g clip-path="url(#clip0_4320_49541)">
<path d="M1.66602 7.915C1.66603 6.9879 1.94727 6.0826 2.47259 5.31869C2.99792 4.55478 3.7426 3.96819 4.6083 3.63639C5.474 3.30458 6.41998 3.24319 7.3213 3.4603C8.22262 3.67741 9.03689 4.16282 9.65655 4.85242C9.70019 4.89909 9.75296 4.93629 9.81157 4.96173C9.87019 4.98716 9.9334 5.00029 9.9973 5.00029C10.0612 5.00029 10.1244 4.98716 10.183 4.96173C10.2416 4.93629 10.2944 4.89909 10.338 4.85242C10.9558 4.15834 11.7702 3.66885 12.673 3.4491C13.5758 3.22935 14.5241 3.28976 15.3917 3.62229C16.2593 3.95482 17.0051 4.54371 17.5297 5.31056C18.0544 6.07741 18.333 6.98586 18.3286 7.915C18.3286 9.82286 17.0789 11.2475 15.8292 12.4972L11.2537 16.9236C11.0984 17.1019 10.907 17.2451 10.6922 17.3438C10.4773 17.4424 10.2439 17.4942 10.0075 17.4957C9.77113 17.4972 9.53712 17.4484 9.32104 17.3524C9.10496 17.2565 8.91176 17.1158 8.75427 16.9394L4.1654 12.4972C2.91571 11.2475 1.66602 9.83119 1.66602 7.915Z" fill="#616161" stroke="#616161" stroke-width="1.66626" stroke-linecap="round" stroke-linejoin="round"/>
</g>
<defs>
<clipPath id="clip0_4320_49541">
<rect width="19.9951" height="19.9951" fill="white"/>
</clipPath>
</defs>
</svg>
