<svg width="194" height="95" viewBox="0 0 194 95" fill="none" xmlns="http://www.w3.org/2000/svg">
<g clip-path="url(#clip0_663_16136)">
<path opacity="0.99" fill-rule="evenodd" clip-rule="evenodd" d="M58.3916 0L75.2367 16.8451L75.2409 17.7987C75.2451 18.4937 75.0989 18.9536 74.7005 19.494C74.4017 19.903 73.7575 20.5896 73.268 21.024C72.7785 21.4584 72.0919 21.8738 71.7422 21.9501C71.3925 22.0242 70.8204 22.02 70.4707 21.9395C70.0257 21.8377 68.591 20.5557 65.7027 17.68C63.4288 15.4167 61.5216 13.5646 61.4644 13.5625C61.4072 13.5604 61.3881 15.4909 61.4241 17.8516C61.4601 20.2124 61.3902 24.8618 61.2673 28.1825C61.1465 31.5053 60.9007 35.4617 60.7248 36.9769C60.5468 38.4921 60.212 40.8761 59.9788 42.2747C59.7457 43.6734 59.5063 45.0317 59.4491 45.2945C59.3473 45.7586 59.3664 45.7565 60.2459 45.1631C60.7417 44.8283 61.9094 44.1735 62.8418 43.7052C63.7742 43.2368 65.1559 42.5926 65.9146 42.2747C66.6732 41.9569 68.1969 41.4122 69.3052 41.0668C70.4135 40.7214 72.3207 40.2552 73.5435 40.0306C74.7662 39.8059 76.5802 39.6195 77.5698 39.6152C78.9812 39.6089 79.4792 39.6894 79.8733 39.9882C80.2633 40.2827 80.3989 40.6282 80.4794 41.533C80.5387 42.173 80.4731 43.5568 80.3374 44.6058C80.2018 45.6548 79.9072 47.2759 79.6847 48.2083C79.4601 49.1408 79.032 50.6199 78.7332 51.493C78.4344 52.3682 77.8178 53.8452 77.3643 54.7777C76.9129 55.7101 75.9868 57.2549 75.3066 58.2107C74.6285 59.1664 73.4545 60.5905 72.6958 61.3767C71.9372 62.1608 70.6042 63.3687 69.729 64.0595C68.8559 64.7503 67.5209 65.6595 66.7622 66.079C66.0036 66.4965 64.6219 67.1619 63.6895 67.554C62.757 67.946 61.0405 68.5415 59.875 68.8763C58.7095 69.2111 56.6115 69.7346 55.2129 70.0355C53.8143 70.3385 52.2885 70.756 51.8223 70.9637C51.3561 71.1713 50.6483 71.6672 50.2499 72.0656C49.8515 72.464 49.2602 73.3625 48.9381 74.0618C48.616 74.7612 48.1795 76.0962 47.9718 77.0286C47.6497 78.4675 47.5925 79.7814 47.5882 85.7256C47.584 92.0322 47.548 92.7866 47.2131 93.3015C47.0097 93.6173 46.5795 94.0369 46.2595 94.2339C45.9395 94.4331 45.1046 94.6366 44.4053 94.6874C43.706 94.7404 42.799 94.679 42.3921 94.5539C41.9831 94.4289 41.3876 94.0347 41.0676 93.6766C40.6947 93.2613 40.4467 92.7039 40.3789 92.1275C40.3217 91.6316 40.1818 87.2704 40.0695 82.4324C39.883 74.4242 39.8195 73.4197 39.3554 71.201C39.0735 69.8617 38.5925 68.0244 38.2873 67.1217C37.98 66.2189 37.4545 64.9305 37.1197 64.2608C36.7849 63.5912 36.058 62.2794 35.507 61.347C34.9539 60.4146 34.0003 58.9842 33.3857 58.1683C32.7733 57.3524 31.5675 55.9305 30.7093 55.0108C29.851 54.089 28.338 52.6564 27.3462 51.8257C26.3544 50.9929 24.6867 49.7341 23.6377 49.0263C22.5887 48.3185 20.9676 47.3268 18.3399 45.9069L20.353 48.0134C21.4613 49.1704 23.0888 50.9272 23.9725 51.919C24.8541 52.9086 26.5833 54.9578 27.8124 56.473C29.0415 57.9882 31.0377 60.707 32.2457 62.5168C33.4557 64.3244 34.7653 66.4711 35.1531 67.2848C35.543 68.0986 35.8058 68.8827 35.7359 69.0289C35.6681 69.1751 35.4434 69.2959 35.24 69.2959C35.0366 69.298 33.8668 69.1009 32.6441 68.8594C31.4213 68.6178 29.228 68.0859 27.77 67.679C26.3142 67.27 24.2629 66.5961 23.2139 66.1808C22.1649 65.7633 20.5438 65.0407 19.6113 64.5745C18.6789 64.1061 17.2951 63.339 16.5386 62.8664C15.7821 62.3939 14.4512 61.4763 13.5845 60.8299C12.7178 60.1815 11.192 58.8401 10.1939 57.8504C9.19576 56.8587 7.80985 55.2863 7.11053 54.3538C6.41333 53.4214 5.29019 51.7049 4.61842 50.5394C3.94453 49.3739 3.00151 47.42 2.52259 46.1951C2.04366 44.9724 1.43335 43.1118 1.16634 42.0628C0.899325 41.0138 0.530593 39.0833 0.344108 37.7716C0.159743 36.4598 0.00504719 34.2665 0.000808908 32.8975C-0.00766765 30.736 0.045314 30.3376 0.407687 29.8778C0.8188 29.3522 0.84847 29.348 4.07168 29.3671C5.9111 29.3776 8.4689 29.5472 9.96925 29.757C11.4272 29.9604 13.4277 30.3058 14.4194 30.5241C15.4112 30.7424 16.937 31.1514 17.8101 31.4353C18.6853 31.7193 19.7809 32.1135 20.2471 32.3084C20.7133 32.5055 21.4762 32.8255 21.9424 33.0183C22.4086 33.2133 23.3156 33.6414 23.9556 33.9719C24.5956 34.3004 26.026 35.1735 27.1343 35.911C28.2426 36.6463 29.9951 38.0471 31.0335 39.0197C32.0698 39.9945 33.5299 41.5542 34.2779 42.4867C35.026 43.4191 36.1428 44.9936 36.7594 45.9832C37.3761 46.975 38.2428 48.5008 38.6836 49.3739C39.1244 50.2491 39.9593 52.1563 40.54 53.6121C41.1206 55.0701 42.1569 57.9543 42.8414 60.0225C43.5258 62.0908 44.0938 63.9514 44.1023 64.1549C44.1128 64.424 44.1807 64.3816 44.3544 63.9959C44.4858 63.7056 44.8736 62.8474 45.2148 62.0887C45.5581 61.3322 46.1176 60.0925 46.4609 59.3338C46.802 58.5773 47.5183 56.8608 48.0502 55.5194C48.5821 54.1801 49.5378 51.51 50.1736 49.5858C50.8093 47.6637 51.5616 45.0402 51.8456 43.7581C52.1296 42.4761 52.5491 40.2361 52.7738 38.7782C53.0005 37.3223 53.2845 34.8429 53.4053 33.2684C53.5239 31.696 53.6235 26.5698 53.6235 21.878C53.6235 17.1862 53.5557 13.3485 53.4752 13.3485C53.3926 13.3485 51.9876 14.7429 50.3495 16.4445C48.7114 18.1483 46.7279 20.1022 45.9417 20.7888C44.7804 21.8017 44.3714 22.0369 43.7695 22.0369C43.3627 22.0369 42.7651 21.9056 42.4451 21.7445C42.1251 21.5834 41.3135 20.8693 40.6438 20.1551C39.9742 19.441 39.366 18.5955 39.2918 18.2755C39.2176 17.9555 39.2155 17.36 39.2854 16.951C39.3893 16.3428 40.0187 15.6117 42.7566 12.914C44.596 11.1022 48.1498 7.63315 50.6567 5.20461C53.1637 2.77608 55.499 0.612432 55.8486 0.39416C56.2237 0.161055 56.8764 0 58.3916 0ZM115.359 32.3084V38.6658L123.518 38.7718V43.8577H100.843V38.7718L108.684 38.6574L108.62 35.9597C108.584 34.4763 108.61 33.048 108.675 32.7852C108.794 32.3169 108.851 32.3084 115.359 32.3084ZM133.796 32.3084V49.0496H138.458L138.564 32.4144H145.133L145.19 54.3475C145.224 66.4096 145.199 76.4946 145.137 76.7574C145.029 77.2257 144.974 77.2342 138.458 77.2342V54.3475H133.796V77.2342H127.226L127.19 54.9133C127.171 42.635 127.235 32.5267 127.332 32.4504C127.43 32.372 128.924 32.3084 133.796 32.3084ZM159.967 32.4144L160.073 49.0496H173L172.894 54.6654L163.252 54.7162C155.771 54.7543 153.576 54.7077 153.455 54.5043C153.368 54.3602 153.296 49.4501 153.296 43.5928C153.294 37.7355 153.349 32.7979 153.421 32.6199C153.531 32.3465 154.044 32.3063 159.967 32.4144ZM182.218 32.4144L182.324 40.9969H187.198L187.304 32.4144H193.661V56.1488L187.198 56.2547V46.2947H182.324L182.218 56.1488L175.755 56.2547L175.719 44.4235C175.699 37.9157 175.765 32.5246 175.865 32.444C175.966 32.3635 177.435 32.3233 182.218 32.4144ZM112.18 46.5342C112.706 46.5194 113.755 46.6105 114.511 46.7355C115.268 46.8584 116.364 47.1678 116.944 47.4221C117.525 47.6764 118.489 48.2655 119.089 48.7318C119.688 49.198 120.615 50.105 121.146 50.7449C121.678 51.387 122.39 52.5293 122.732 53.2879C123.071 54.0466 123.473 55.2841 123.626 56.0428C123.806 56.935 123.859 58.1301 123.778 59.4334C123.704 60.6519 123.475 61.9488 123.204 62.7181C122.956 63.4174 122.435 64.5151 122.045 65.1551C121.655 65.7972 120.727 66.8928 119.983 67.5921C119.237 68.2914 118.108 69.1264 117.47 69.4485C116.834 69.7706 115.787 70.1753 115.147 70.347C114.507 70.5186 113.267 70.6606 112.392 70.6627C111.519 70.6649 110.231 70.5165 109.531 70.3343C108.832 70.152 107.688 69.6985 106.988 69.3277C106.289 68.9547 105.096 68.0329 104.337 67.2742C103.466 66.4054 102.71 65.3882 102.284 64.5194C101.911 63.7607 101.46 62.5231 101.282 61.7645C101.101 61.0058 100.955 59.5754 100.955 58.5858C100.955 57.5961 101.106 56.2123 101.288 55.513C101.47 54.8137 101.89 53.6694 102.22 52.97C102.551 52.2707 103.386 51.0798 104.075 50.3211C104.763 49.5625 105.795 48.6385 106.37 48.2655C106.944 47.8926 107.84 47.4306 108.366 47.242C108.891 47.0513 109.748 46.8182 110.273 46.7249C110.799 46.6317 111.655 46.5469 112.18 46.5342ZM109.319 53.5592C108.824 53.9788 108.26 54.7522 107.961 55.424C107.626 56.1763 107.417 57.1214 107.351 58.1619C107.283 59.2406 107.359 60.1264 107.586 60.9168C107.768 61.5568 108.209 62.4871 108.565 62.983C108.987 63.57 109.601 64.068 110.326 64.4113C111.002 64.7313 111.812 64.9389 112.392 64.9368C112.918 64.9368 113.715 64.8181 114.164 64.674C114.615 64.5321 115.317 64.1273 115.724 63.7777C116.13 63.428 116.709 62.6185 117.012 61.9764C117.362 61.2304 117.593 60.3171 117.65 59.4334C117.701 58.6748 117.635 57.5326 117.506 56.8904C117.376 56.2505 116.959 55.2587 116.58 54.6887C116.169 54.0699 115.503 53.4341 114.935 53.1141C114.272 52.739 113.594 52.5568 112.71 52.5144C112.011 52.4805 111.153 52.542 110.803 52.65C110.453 52.756 109.786 53.1671 109.319 53.5592ZM193.661 59.5394L193.721 67.91C193.752 72.5149 193.729 76.4946 193.555 77.2342H158.801V68.6517C158.801 63.9324 158.859 59.9251 158.926 59.7492C159.037 59.4694 161.107 59.4377 193.661 59.5394ZM165.371 71.9363H187.198V65.1551H165.371V71.9363Z" fill="#009951"/>
</g>
<defs>
<clipPath id="clip0_663_16136">
<rect width="193.733" height="94.7065" fill="white"/>
</clipPath>
</defs>
</svg>
